<svg xmlns="http://www.w3.org/2000/svg" aria-hidden="true">
<symbol id="icon-check" viewBox="0 0 32 32">
<path d="M27.883 16.078c0.076-0.347 0.117-0.708 0.117-1.078 0-2.761-2.239-5-5-5-0.445 0-0.875 0.058-1.285 0.167-0.775-2.417-3.040-4.167-5.715-4.167-2.73 0-5.033 1.823-5.76 4.318-0.711-0.207-1.462-0.318-2.24-0.318-4.418 0-8 3.582-8 8s3.582 8 8 8h19c2.761 0 5-2.239 5-5 0-2.46-1.777-4.505-4.117-4.922zM13 24l-5-5 2-2 3 3 7-7 2 2-9 9z"></path>
</symbol>
<symbol id="icon-circle-right" viewBox="0 0 23 32">
<path d="M5.28 3.28c-0.28 0.28-0.48 0.76-0.48 1.080s2.64 3.24 5.88 6.52l5.88 5.92-5.96 6c-5.12 5.12-5.92 6.12-5.56 6.72 1 1.56 1.8 1.040 8.8-5.96l6.96-6.96-6.88-6.88c-3.8-3.8-7.2-6.92-7.52-6.92-0.36 0-0.84 0.2-1.12 0.48z"></path>
</symbol>
<symbol id="icon-circle-left" viewBox="0 0 22 32">
<path d="M9.671 9.671l-6.116 6.151 6.151 6.151c3.378 3.342 6.364 6.116 6.684 6.116 0.676 0 1.387-0.711 1.387-1.387 0-0.284-2.347-2.88-5.227-5.796l-5.227-5.262 5.298-5.333c4.551-4.551 5.262-5.44 4.942-5.973-0.889-1.422-1.636-0.889-7.893 5.333z"></path>
</symbol>
</svg>